<?xml version="1.0" encoding="UTF-8" standalone="no"?><!DOCTYPE svg PUBLIC "-//W3C//DTD SVG 1.1//EN" "http://www.w3.org/Graphics/SVG/1.1/DTD/svg11.dtd"><svg width="100%" height="100%" viewBox="0 0 2134 2134" version="1.1" xmlns="http://www.w3.org/2000/svg" xmlns:xlink="http://www.w3.org/1999/xlink" xml:space="preserve" xmlns:serif="http://www.serif.com/" style="fill-rule:evenodd;clip-rule:evenodd;stroke-linejoin:round;stroke-miterlimit:2;"><rect x="-0" y="1829.54" width="2133.33" height="303.797" style="fill:#cb8abe;"/><rect x="-0" y="1511.95" width="2133.33" height="317.587" style="fill:#ea57cc;"/><rect x="-0" y="1200.56" width="2133.33" height="311.387" style="fill:#c912a5;"/><rect x="-0" y="911.567" width="2133.33" height="288.996" style="fill:#75095f;"/><rect x="-0" y="638.463" width="2133.33" height="277.27" style="fill:#34032b;"/><rect x="-0" y="-0" width="2133.33" height="647.166"/><path d="M1494.57,1707.42l70.671,425.912l302.334,0l-120.159,-724.17c-158.304,-0 -278.758,142.087 -252.846,298.258Z" style="fill:#e6ae95;fill-rule:nonzero;"/><path d="M664.346,1481.85l108.096,651.487l302.333,0l-132.65,-799.47l-152.329,-0c-78.542,-0.005 -138.308,70.495 -125.45,147.983Z" style="fill:#ffc1a6;fill-rule:nonzero;"/><path d="M1377.05,2133.33l-160.846,-969.387c-158.304,-0 -278.762,142.087 -252.846,298.258l111.355,671.129l302.337,0Z" style="fill:#e6ae95;fill-rule:nonzero;"/><g><path d="M927.817,1247.94l39.733,239.45l-150.008,-0l-15.175,-91.463c-12.863,-77.496 46.904,-147.987 125.45,-147.987Z" style="fill-rule:nonzero;"/><path d="M1202.43,1080.84l39.734,239.45l-150.009,-0l-15.175,-91.463c-12.862,-77.496 46.904,-147.987 125.45,-147.987Z" style="fill-rule:nonzero;"/><path d="M1737.23,1320.29l34.111,239.45l-128.779,-0l-13.028,-91.463c-11.038,-77.496 40.27,-147.987 107.696,-147.987Z" style="fill-rule:nonzero;"/></g><path d="M1293.82,1632.12l83.162,501.216l302.334,0l-132.65,-799.475c-158.305,0 -278.755,142.084 -252.846,298.259Z" style="fill:#ffc1a6;fill-rule:nonzero;"/><path d="M752.833,922.521c-11.995,-0 -23.82,-5.542 -31.408,-15.984l-361.025,-496.554c-12.6,-17.329 -8.767,-41.591 8.563,-54.195c17.333,-12.596 41.6,-8.767 54.195,8.566l361.025,496.554c12.6,17.329 8.767,41.592 -8.562,54.196c-6.896,5.004 -14.875,7.417 -22.788,7.417Z" style="fill:#353540;fill-rule:nonzero;"/><g><path d="M364.192,86.325c-31.471,-36.508 -85.675,-42.788 -124.663,-14.442l-100.717,73.234c-38.987,28.346 -49.725,81.846 -24.704,123.041l183.08,301.388l297.25,-216.117l-230.246,-267.104Z" style="fill:#ba82aa;fill-rule:nonzero;"/><path d="M981.278,872.237l-171.106,234.514l-208.243,-217.649l110.034,-150.812l269.315,133.947Z" style="fill-rule:nonzero;"/></g><g><path d="M1803.27,1043.41c111.367,0 132.725,172.534 132.725,172.534c0,-0 21.359,-172.534 132.725,-172.534c-111.366,0 -132.725,-172.533 -132.725,-172.533c0,-0 -21.354,172.533 -132.725,172.533Z" style="fill:#ffd782;fill-rule:nonzero;"/><path d="M1126.79,745.606c111.367,0 132.725,172.534 132.725,172.534c0,-0 21.358,-172.534 132.725,-172.534c-111.367,0 -132.725,-172.533 -132.725,-172.533c0,-0 -21.354,172.533 -132.725,172.533Z" style="fill:#ffd782;fill-rule:nonzero;"/><path d="M206.999,1598.72c111.366,-0 132.725,172.533 132.725,172.533c-0,-0 21.358,-172.533 132.725,-172.533c-111.367,-0 -132.725,-172.534 -132.725,-172.534c-0,0 -21.35,172.534 -132.725,172.534Z" style="fill:#ffd782;fill-rule:nonzero;"/></g><path d="M1532.91,1247.94l39.733,239.45l-150.008,-0l-15.175,-91.463c-12.863,-77.496 46.904,-147.987 125.45,-147.987Z" style="fill-rule:nonzero;"/></svg>